<svg width="285" height="28" viewBox="0 0 285 28" fill="none" xmlns="http://www.w3.org/2000/svg">
<path d="M5.84961 2.09375L9.60938 16.4902L13.3555 2.09375H18.6055V22H14.5723V16.6133L14.9414 8.31445L10.9629 22H8.22852L4.25 8.31445L4.61914 16.6133V22H0.599609V2.09375H5.84961ZM28.6816 22C28.5723 21.7721 28.4629 21.3893 28.3535 20.8516C27.6608 21.7995 26.722 22.2734 25.5371 22.2734C24.2975 22.2734 23.2676 21.8633 22.4473 21.043C21.6361 20.2227 21.2305 19.1608 21.2305 17.8574C21.2305 16.3079 21.7227 15.1094 22.707 14.2617C23.7005 13.4141 25.127 12.9811 26.9863 12.9629H28.1621V11.7734C28.1621 11.1081 28.0482 10.6387 27.8203 10.3652C27.5924 10.0918 27.2598 9.95508 26.8223 9.95508C25.8561 9.95508 25.373 10.5202 25.373 11.6504H21.5039C21.5039 10.2832 22.0143 9.15755 23.0352 8.27344C24.0651 7.38021 25.3639 6.93359 26.9316 6.93359C28.554 6.93359 29.8073 7.35742 30.6914 8.20508C31.5846 9.04362 32.0312 10.2467 32.0312 11.8145V18.7734C32.0495 20.0495 32.2318 21.0475 32.5781 21.7676V22H28.6816ZM26.3984 19.2383C26.8268 19.2383 27.1914 19.1517 27.4922 18.9785C27.793 18.8053 28.0163 18.6003 28.1621 18.3633V15.2871H27.2324C26.5762 15.2871 26.0566 15.4967 25.6738 15.916C25.3001 16.3353 25.1133 16.8958 25.1133 17.5977C25.1133 18.6914 25.5417 19.2383 26.3984 19.2383ZM42.1348 10.9395L40.8496 10.8301C39.7923 10.8301 39.0768 11.2949 38.7031 12.2246V22H34.8203V7.20703H38.4707L38.5801 8.80664C39.1908 7.55794 40.0339 6.93359 41.1094 6.93359C41.5469 6.93359 41.9023 6.99284 42.1758 7.11133L42.1348 10.9395ZM49.2305 16.5312L51.1035 7.20703H55.1367L51.0762 22H47.3848L43.3105 7.20703H47.3574L49.2305 16.5312ZM62.9297 22.2734C60.9427 22.2734 59.3932 21.681 58.2812 20.4961C57.1693 19.3112 56.6133 17.6159 56.6133 15.4102V14.2344C56.6133 11.901 57.1237 10.1009 58.1445 8.83398C59.1654 7.56706 60.6283 6.93359 62.5332 6.93359C64.3926 6.93359 65.7917 7.5306 66.7305 8.72461C67.6693 9.90951 68.1478 11.6686 68.166 14.002V15.9023H60.4688C60.5234 16.9961 60.765 17.7982 61.1934 18.3086C61.6217 18.8099 62.2826 19.0605 63.1758 19.0605C64.4701 19.0605 65.5501 18.6185 66.416 17.7344L67.9336 20.0723C67.4596 20.7285 66.7715 21.2617 65.8691 21.6719C64.9668 22.0729 63.987 22.2734 62.9297 22.2734ZM60.4961 13.1953H64.3652V12.8398C64.347 11.9557 64.2012 11.2858 63.9277 10.8301C63.6543 10.3743 63.1803 10.1465 62.5059 10.1465C61.8314 10.1465 61.3392 10.388 61.0293 10.8711C60.7285 11.3542 60.5508 12.1289 60.4961 13.1953ZM74.4141 22H70.5312V1H74.4141V22Z" fill="#9F0013"/>
<path d="M87.9219 22H84.0391V7.20703H87.9219V22ZM83.8613 3.37891C83.8613 2.77734 84.0527 2.28516 84.4355 1.90234C84.8184 1.51953 85.3288 1.32812 85.9668 1.32812C86.6048 1.32812 87.1152 1.51953 87.498 1.90234C87.8809 2.28516 88.0723 2.77734 88.0723 3.37891C88.0723 3.97135 87.8809 4.46354 87.498 4.85547C87.1243 5.2474 86.6139 5.44336 85.9668 5.44336C85.3197 5.44336 84.8047 5.2474 84.4219 4.85547C84.0482 4.46354 83.8613 3.97135 83.8613 3.37891ZM94.457 7.20703L94.5664 8.66992C95.4414 7.51237 96.5853 6.93359 97.998 6.93359C100.541 6.93359 101.849 8.71549 101.922 12.2793V22H98.0391V12.5664C98.0391 11.7279 97.9115 11.1217 97.6562 10.748C97.4102 10.3652 96.9727 10.1738 96.3438 10.1738C95.6419 10.1738 95.0951 10.5339 94.7031 11.2539V22H90.8203V7.20703H94.457ZM105.586 22V10.1191H103.795V7.20703H105.586V5.88086C105.595 4.24935 106.023 2.98242 106.871 2.08008C107.728 1.16862 108.908 0.712891 110.412 0.712891C110.868 0.712891 111.451 0.804036 112.162 0.986328L112.135 4.07617C111.87 3.99414 111.556 3.95312 111.191 3.95312C110.043 3.95312 109.469 4.63672 109.469 6.00391V7.20703H111.779V10.1191H109.469V22H105.586ZM113.434 14.125C113.434 11.8828 113.962 10.1237 115.02 8.84766C116.077 7.57161 117.54 6.93359 119.408 6.93359C121.295 6.93359 122.767 7.57161 123.824 8.84766C124.882 10.1237 125.41 11.8919 125.41 14.1523V15.0957C125.41 17.347 124.886 19.1061 123.838 20.373C122.79 21.64 121.322 22.2734 119.436 22.2734C117.54 22.2734 116.063 21.64 115.006 20.373C113.958 19.097 113.434 17.3288 113.434 15.0684V14.125ZM117.316 15.0957C117.316 17.7389 118.023 19.0605 119.436 19.0605C120.739 19.0605 121.441 17.9577 121.541 15.752L121.555 14.125C121.555 12.776 121.368 11.778 120.994 11.1309C120.62 10.4746 120.092 10.1465 119.408 10.1465C118.752 10.1465 118.237 10.4746 117.863 11.1309C117.499 11.778 117.316 12.776 117.316 14.125V15.0957ZM135.131 10.9395L133.846 10.8301C132.788 10.8301 132.073 11.2949 131.699 12.2246V22H127.816V7.20703H131.467L131.576 8.80664C132.187 7.55794 133.03 6.93359 134.105 6.93359C134.543 6.93359 134.898 6.99284 135.172 7.11133L135.131 10.9395ZM140.764 7.20703L140.873 8.57422C141.739 7.48047 142.883 6.93359 144.305 6.93359C145.781 6.93359 146.825 7.59896 147.436 8.92969C148.283 7.59896 149.491 6.93359 151.059 6.93359C153.647 6.93359 154.973 8.72461 155.037 12.3066V22H151.168V12.5527C151.168 11.696 151.049 11.0853 150.812 10.7207C150.576 10.3561 150.174 10.1738 149.609 10.1738C148.889 10.1738 148.352 10.6159 147.996 11.5L148.023 11.9648V22H144.154V12.5801C144.154 11.7324 144.04 11.1217 143.812 10.748C143.585 10.3652 143.179 10.1738 142.596 10.1738C141.93 10.1738 141.402 10.5339 141.01 11.2539V22H137.141V7.20703H140.764ZM164.936 22C164.826 21.7721 164.717 21.3893 164.607 20.8516C163.915 21.7995 162.976 22.2734 161.791 22.2734C160.551 22.2734 159.521 21.8633 158.701 21.043C157.89 20.2227 157.484 19.1608 157.484 17.8574C157.484 16.3079 157.977 15.1094 158.961 14.2617C159.954 13.4141 161.381 12.9811 163.24 12.9629H164.416V11.7734C164.416 11.1081 164.302 10.6387 164.074 10.3652C163.846 10.0918 163.514 9.95508 163.076 9.95508C162.11 9.95508 161.627 10.5202 161.627 11.6504H157.758C157.758 10.2832 158.268 9.15755 159.289 8.27344C160.319 7.38021 161.618 6.93359 163.186 6.93359C164.808 6.93359 166.061 7.35742 166.945 8.20508C167.839 9.04362 168.285 10.2467 168.285 11.8145V18.7734C168.303 20.0495 168.486 21.0475 168.832 21.7676V22H164.936ZM162.652 19.2383C163.081 19.2383 163.445 19.1517 163.746 18.9785C164.047 18.8053 164.27 18.6003 164.416 18.3633V15.2871H163.486C162.83 15.2871 162.311 15.4967 161.928 15.916C161.554 16.3353 161.367 16.8958 161.367 17.5977C161.367 18.6914 161.796 19.2383 162.652 19.2383ZM175.586 3.57031V7.20703H177.568V10.1191H175.586V17.4609C175.586 18.0443 175.663 18.4453 175.818 18.6641C175.982 18.8828 176.292 18.9922 176.748 18.9922C177.122 18.9922 177.427 18.9603 177.664 18.8965L177.637 21.9043C176.98 22.1504 176.27 22.2734 175.504 22.2734C173.007 22.2734 171.744 20.8424 171.717 17.9805V10.1191H170.008V7.20703H171.717V3.57031H175.586ZM183.762 22H179.879V7.20703H183.762V22ZM179.701 3.37891C179.701 2.77734 179.893 2.28516 180.275 1.90234C180.658 1.51953 181.169 1.32812 181.807 1.32812C182.445 1.32812 182.955 1.51953 183.338 1.90234C183.721 2.28516 183.912 2.77734 183.912 3.37891C183.912 3.97135 183.721 4.46354 183.338 4.85547C182.964 5.2474 182.454 5.44336 181.807 5.44336C181.16 5.44336 180.645 5.2474 180.262 4.85547C179.888 4.46354 179.701 3.97135 179.701 3.37891ZM186.305 14.125C186.305 11.8828 186.833 10.1237 187.891 8.84766C188.948 7.57161 190.411 6.93359 192.279 6.93359C194.166 6.93359 195.638 7.57161 196.695 8.84766C197.753 10.1237 198.281 11.8919 198.281 14.1523V15.0957C198.281 17.347 197.757 19.1061 196.709 20.373C195.661 21.64 194.193 22.2734 192.307 22.2734C190.411 22.2734 188.934 21.64 187.877 20.373C186.829 19.097 186.305 17.3288 186.305 15.0684V14.125ZM190.188 15.0957C190.188 17.7389 190.894 19.0605 192.307 19.0605C193.61 19.0605 194.312 17.9577 194.412 15.752L194.426 14.125C194.426 12.776 194.239 11.778 193.865 11.1309C193.492 10.4746 192.963 10.1465 192.279 10.1465C191.623 10.1465 191.108 10.4746 190.734 11.1309C190.37 11.778 190.188 12.776 190.188 14.125V15.0957ZM204.242 7.20703L204.352 8.66992C205.227 7.51237 206.37 6.93359 207.783 6.93359C210.326 6.93359 211.634 8.71549 211.707 12.2793V22H207.824V12.5664C207.824 11.7279 207.697 11.1217 207.441 10.748C207.195 10.3652 206.758 10.1738 206.129 10.1738C205.427 10.1738 204.88 10.5339 204.488 11.2539V22H200.605V7.20703H204.242ZM232.461 15.0684C232.461 17.3926 232.06 19.1745 231.258 20.4141C230.465 21.6536 229.28 22.2734 227.703 22.2734C226.5 22.2734 225.534 21.7858 224.805 20.8105V27.6875H220.936V7.20703H224.518L224.654 8.56055C225.393 7.47591 226.4 6.93359 227.676 6.93359C229.253 6.93359 230.438 7.50781 231.23 8.65625C232.033 9.80469 232.443 11.5638 232.461 13.9336V15.0684ZM228.605 14.0977C228.605 12.6667 228.446 11.6549 228.127 11.0625C227.817 10.4701 227.288 10.1738 226.541 10.1738C225.748 10.1738 225.169 10.5065 224.805 11.1719V18.1035C225.151 18.7415 225.739 19.0605 226.568 19.0605C227.334 19.0605 227.863 18.737 228.154 18.0898C228.455 17.4427 228.605 16.4355 228.605 15.0684V14.0977ZM234.348 14.125C234.348 11.8828 234.876 10.1237 235.934 8.84766C236.991 7.57161 238.454 6.93359 240.322 6.93359C242.209 6.93359 243.681 7.57161 244.738 8.84766C245.796 10.1237 246.324 11.8919 246.324 14.1523V15.0957C246.324 17.347 245.8 19.1061 244.752 20.373C243.704 21.64 242.236 22.2734 240.35 22.2734C238.454 22.2734 236.977 21.64 235.92 20.373C234.872 19.097 234.348 17.3288 234.348 15.0684V14.125ZM238.23 15.0957C238.23 17.7389 238.937 19.0605 240.35 19.0605C241.653 19.0605 242.355 17.9577 242.455 15.752L242.469 14.125C242.469 12.776 242.282 11.778 241.908 11.1309C241.535 10.4746 241.006 10.1465 240.322 10.1465C239.666 10.1465 239.151 10.4746 238.777 11.1309C238.413 11.778 238.23 12.776 238.23 14.125V15.0957ZM256.045 10.9395L254.76 10.8301C253.702 10.8301 252.987 11.2949 252.613 12.2246V22H248.73V7.20703H252.381L252.49 8.80664C253.101 7.55794 253.944 6.93359 255.02 6.93359C255.457 6.93359 255.812 6.99284 256.086 7.11133L256.045 10.9395ZM263.223 3.57031V7.20703H265.205V10.1191H263.223V17.4609C263.223 18.0443 263.3 18.4453 263.455 18.6641C263.619 18.8828 263.929 18.9922 264.385 18.9922C264.758 18.9922 265.064 18.9603 265.301 18.8965L265.273 21.9043C264.617 22.1504 263.906 22.2734 263.141 22.2734C260.643 22.2734 259.381 20.8424 259.354 17.9805V10.1191H257.645V7.20703H259.354V3.57031H263.223ZM274.365 22C274.256 21.7721 274.146 21.3893 274.037 20.8516C273.344 21.7995 272.406 22.2734 271.221 22.2734C269.981 22.2734 268.951 21.8633 268.131 21.043C267.32 20.2227 266.914 19.1608 266.914 17.8574C266.914 16.3079 267.406 15.1094 268.391 14.2617C269.384 13.4141 270.811 12.9811 272.67 12.9629H273.846V11.7734C273.846 11.1081 273.732 10.6387 273.504 10.3652C273.276 10.0918 272.943 9.95508 272.506 9.95508C271.54 9.95508 271.057 10.5202 271.057 11.6504H267.188C267.188 10.2832 267.698 9.15755 268.719 8.27344C269.749 7.38021 271.048 6.93359 272.615 6.93359C274.238 6.93359 275.491 7.35742 276.375 8.20508C277.268 9.04362 277.715 10.2467 277.715 11.8145V18.7734C277.733 20.0495 277.915 21.0475 278.262 21.7676V22H274.365ZM272.082 19.2383C272.51 19.2383 272.875 19.1517 273.176 18.9785C273.477 18.8053 273.7 18.6003 273.846 18.3633V15.2871H272.916C272.26 15.2871 271.74 15.4967 271.357 15.916C270.984 16.3353 270.797 16.8958 270.797 17.5977C270.797 18.6914 271.225 19.2383 272.082 19.2383ZM284.578 22H280.695V1H284.578V22Z" fill="black"/>
</svg>
